<svg xmlns="http://www.w3.org/2000/svg" version="1.1" width="600px" height="600px" viewBox="0 0 200 200" style="overflow:hidden!important;"><g id="svga-group-wrapper"><g id="svga-group-backs-single"><path id="SvgjsPath4993" d="M0 0h200v200H0V0z" fill="#ecf0f1" stroke-width="none" opacity="1"></path></g><g id="svga-group-humanwrap-move" transform="matrix(1,0,0,1,0,0)"><g id="svga-group-humanwrap"><g id="svga-group-hair-back-move" transform="matrix(1,0,0,1,0,0)"><g id="svga-group-hair-back"></g></g><g id="svga-group-humanbody-back"><path id="SvgjsPath4946" d="M166.5 181.1c-10.9-6.6-27.6-8.4-35-12.1-4.9-2.5-9.1-4.7-8.9-17.8s1.9-42.4 1.9-42.4H75.4s1.6 29.4 1.9 42.4-4.2 15.6-8.9 17.8c-7.4 3.5-24.1 5.4-35 12.1-10.8 6.6-10 18.9-10 18.9v19.7h153.3V200c-.1 0 .7-12.3-10.2-18.9z" fill="#f0c7b1" stroke-width="none" opacity="1" stroke="none"></path></g><g id="svga-group-chinshadow-single"><path id="SvgjsPath11709" d="M77.2 155.2c5.1 2.8 7.7 4.2 9.6 6.5 2.6 3.2 10.3 4.4 13.2 4.4 3 0 10.7-1.2 13.2-4.4 1.9-2.3 4.5-3.7 9.5-6.4-.1-1.2-.1-2.6-.1-4.1.2-13.1 1.9-42.4 1.9-42.4H75.4s1.6 29.4 1.9 42.4c0 1.5 0 2.8-.1 4z" fill="#d19271" stroke-width="none" opacity="0.65"></path></g><g id="svga-group-humanbody-front"><path id="SvgjsPath4947" d="M78.7 156.8c.5 4.8 1.7 9.4 3.1 13.9.8 2.3 1.6 4.6 2.6 6.9.8 2 1.7 4.2 3.1 5.9.3.4 1 0 .9-.5-.5-2.2-1.6-4.3-2.4-6.4-.9-2.2-1.7-4.4-2.5-6.6-1.5-4.4-2.8-8.9-4.1-13.3-.2-.4-.8-.3-.7.1zm41.3-1c-1.3 8.2-3.9 16.1-5.4 24.2-.1.4.4.5.6.2 3.1-7.7 4.1-16.1 5.1-24.3-.1-.2-.3-.2-.3-.1zm-25.8 11.9c-.9 3.6 1.9 8.6 6.2 7.6.5-.1.4-.8 0-1-1.4-.5-2.9-.9-3.9-2.1-1.1-1.2-1.5-2.9-1.4-4.5 0-.4-.8-.5-.9 0z" fill="#d19271" stroke-width="none" opacity="1" stroke="none"></path><path id="SvgjsPath4948" d="M177.3 219.7c-.1-6.6-.3-13.1-.3-19.7l-.3-.3c.1 0 .1 0 .2.1s.1.2.1.1v-1.4c0-.5-.1-.9-.1-1.4-.1-.9-.3-1.9-.5-2.8-.5-1.8-1.1-3.6-2-5.3-1.7-3.4-4.4-6.2-7.7-8.1-3.6-2.2-7.6-3.8-11.6-5.1-4-1.3-8.1-2.4-12.1-3.5-4-1.2-8.1-2.2-11.8-4.2-1.9-1-3.6-2.1-4.8-3.6-1.2-1.6-1.9-3.5-2.3-5.5-.8-4-.4-8.2-.3-12.4l.7-12.6 1.5-25.2.1-1.4h-1.4c-8.2 0-16.4 0-24.6.1l-24.6.3h-.9l.1.9c.8 11.9 1.6 23.8 2.1 35.7.1 3 .3 6 .2 8.9-.1 2.9-.4 5.9-1.6 8.6-.6 1.3-1.4 2.5-2.4 3.5s-2.3 1.8-3.6 2.4c-2.6 1.3-5.4 2.2-8.3 3-5.8 1.5-11.6 2.8-17.3 4.7-2.8.9-5.7 2-8.4 3.4-1.3.7-2.7 1.4-4 2.4-1.3.9-2.4 1.9-3.5 3.1-2.1 2.3-3.6 5.2-4.5 8.1-.5 1.5-.8 3-1 4.6-.1.8-.1 1.6-.1 2.4v2.3l-.2 17.9v1.3h1.4l38.3.2c12.8.1 25.5.1 38.3 0 12.8-.1 25.6-.1 38.3-.3 12.8-.2 25.6-.5 38.3-.7h.6v-.5zm-77.2-1.6H61.8l-37 .2-.1-16.6v-2.2c0-.7 0-1.4.1-2.1.1-1.4.4-2.8.8-4.2.8-2.7 2.1-5.3 3.9-7.5.9-1.1 2-2.1 3.1-2.9 1.1-.9 2.4-1.6 3.7-2.3 2.6-1.4 5.3-2.5 8.1-3.5 5.6-2 11.4-3.4 17.1-5.1 2.9-.8 5.8-1.7 8.5-3.1 1.3-.7 2.7-1.5 3.8-2.6 1.1-1.1 2-2.4 2.6-3.9 1.2-2.9 1.5-5.9 1.6-8.9 0-3-.1-6-.2-9l-1.3-34.8 23.5.4c7.7.1 15.4.1 23.1.1-.4 7.9-.8 15.9-1.1 23.8-.2 4.2-.2 8.4-.3 12.6 0 4.2-.2 8.5.8 12.8.5 2.1 1.3 4.2 2.8 6 1.4 1.7 3.4 2.9 5.3 3.8 3.9 1.9 8 2.8 12.1 3.8s8.2 2 12.2 3.3c4 1.3 7.9 2.8 11.5 5 3.2 1.9 5.8 4.7 7.5 8 .9 1.6 1.5 3.4 1.9 5.2.2.9.4 1.8.4 2.7.1.5.1.9.1 1.4V200l-.3 19c-12.6-.2-25.1-.5-37.7-.7-12.7-.1-25.5-.1-38.2-.2z" fill="#c27b55" stroke-width="none" opacity="1" stroke="none"></path></g><g id="svga-group-clothes-single"><path id="SvgjsPath11542" d="M179.6 220.1s.2-11.6 0-20.3-4.1-14.6-8.3-18.7c-4.2-4.1-19.6-8.5-28.5-10.9s-13.7-9.1-13.7-9.1 0-11.3-.2-12-1.7-1.1-1.7-1.1-2.4 3.5-6.7 5.4c-4.2 1.9-14.3 4.2-16.9 4.8s-2.2 11.1-2.2 11.1h-2.9s.4-10.5-2.2-11.1-12.7-3-16.9-4.8c-4.2-1.9-6.2-5.7-6.2-5.7s-2 .7-2.2 1.4-.2 12-.2 12-4.8 6.7-13.7 9.1c-8.9 2.4-24.2 6.8-28.5 10.9-4.2 4.1-8.1 10-8.3 18.7-.2 8.7 0 20.3 0 20.3h159.3z" fill="#386e77" stroke-width="none" opacity="1" stroke="none"></path><path id="SvgjsPath11543" d="M90.2 178.5h19.4v2.9H90.2v-2.9zm0 16.5h19.4v2.9H90.2V195zm0 15.4h19.4v2.9H90.2v-2.9z" fill="#c9c9c9" stroke-width="none" opacity="1"></path><path id="SvgjsPath11544" d="M38.7 199.4c-.7-3.1-1.7-6.1-3-9s-2.9-5.7-4.9-8.1c.8 1.4 1.6 2.7 2.3 4.1.7 1.4 1.3 2.8 1.9 4.3 1.1 2.9 2.1 5.9 2.7 8.9.7 3.1 1.2 6.1 1.7 9.3.2 1.6.4 3.1.6 4.7.2 1.6.3 3.1.5 4.7.2-3.2 0-6.3-.3-9.5s-.9-6.3-1.5-9.4zm122.9 0c-.7 3.1-1.2 6.2-1.5 9.4-.3 3.1-.4 6.3-.3 9.5.1-1.6.3-3.1.5-4.7s.4-3.1.6-4.7c.5-3.1 1-6.2 1.7-9.3.6-3.1 1.6-6 2.7-8.9.6-1.5 1.2-2.9 1.9-4.3s1.4-2.8 2.3-4.1c-2 2.5-3.6 5.2-4.9 8.1-1.4 2.9-2.4 5.9-3 9zm18.3-1.5c-.3-3.7-1.3-7.5-3.2-10.8-.9-1.6-2-3.2-3.3-4.6-.6-.7-1.2-1.4-2-2-.7-.7-1.5-1.2-2.4-1.7-3.3-1.9-6.8-3.2-10.3-4.5-3.5-1.2-7-2.3-10.6-3.4l-5.3-1.5c-1.7-.5-3.4-1.2-5-2-3.1-1.6-5.9-3.9-8-6.6l-.1-6.7-.1-3.5v-.9c0-.2 0-.3-.1-.5 0-.2-.2-.6-.3-.8-.3-.4-.7-.6-1-.8s-.6-.3-1-.4h-.3c-.6-.1-2.7-.6-3.5-.6l-.1 4-.1.1c-1.2.9-2.5 1.7-3.9 2.2-2.9 1.1-5.9 2-9 2.8-1.5.4-3.1.8-4.6 1.2l-2.3.6c-.1 0-.2.1-.4.1-.2.1-.3.1-.4.2l-.6.6c-.3.4-.4.8-.6 1.2-.5 1.6-.7 3.2-.8 4.8-.1 1.4-.1 2.8-.1 4.2h-1.9c0-1.4 0-2.8-.1-4.3-.1-1.6-.3-3.2-.8-4.8-.2-.4-.3-.8-.6-1.2-.1-.2-.3-.4-.5-.5s-.5-.3-.7-.3l-2.3-.5c-1.5-.4-3.1-.7-4.6-1.1-3.1-.8-6.1-1.6-9.1-2.7-1.2-.5-1.4-1.1-2.5-1.9.1-.5.2-1.9-.1-4.5 0 0-3.1 0-5.1.7-.6.2-1.2.4-1.7.9-.3.4-.2.8-.3 1v.9l-.1 3.5-.1 6.9c-2.2 2.8-5.2 5.1-8.3 6.8-1.6.8-3.3 1.5-5.1 2l-5.4 1.4c-3.6 1-7.1 2.1-10.6 3.2-1.8.6-3.5 1.2-5.2 1.9s-3.5 1.4-5.1 2.4c-.8.5-1.6 1-2.4 1.7-.7.6-1.4 1.3-2 2-1.3 1.4-2.4 2.9-3.4 4.6-1.9 3.3-3.1 7-3.4 10.8-.2 1.9-.1 3.7-.1 5.6v16.7c0 .5.4.9.9.9 78.7 2 159.2-.6 159.2-.6l.2-11.3.1-5.6c.6-1.6.7-3.4.5-5.3zm-40.5 21.7-39.5-.3c.1-2.5.1-2.9.2-5.4 1.6 0 3.2-.1 4.8-.1 1.6-.1 3.2-.1 4.7-.3.1-.9.2-1.9.2-3 0-.1-.1-.2-.2-.3-1.6-.1-3.2-.1-4.8-.2-1.5-.1-3-.1-4.6-.1 0-.8.1-1.7.1-2.5.1-3.2.1-6 .1-9.1 1.6 0 3.1-.1 4.6-.1 1.6-.1 3.2-.1 4.7-.3.1-.9.2-1.9.2-3 0-.1-.1-.2-.2-.3-1.6-.1-3.2-.2-4.8-.2-1.4-.1-2.9-.1-4.4-.1 0-3.9 0-7.9-.1-11.8v-.8c1.6 0 3.2-.1 4.7-.1 1.6-.1 3.2-.1 4.7-.3.1-.9.2-1.9.2-3 0-.1-.1-.2-.2-.3-1.6-.1-3.2-.1-4.8-.2-1.5-.1-3.1-.1-4.6-.1v-1.5c-.1-1.6-.1-3.2-.2-4.8 4.9 0 9.9-.6 14.6-1.9 4.8-1.4 9.4-3.4 13.1-6.8-1.9 1.5-4.1 2.7-6.4 3.7-2.2 1-4.6 1.8-7 2.4-4.7 1.1-9.6 1.7-14.5 1.6v-.4.4h-.1c-4.9 0-9.8-.6-14.5-1.8-2.4-.6-4.7-1.4-6.9-2.4s-4.4-2.1-6.4-3.6c3.8 3.2 8.4 5.3 13.2 6.7 4.8 1.4 9.8 2 14.7 2.1-.1 1.6-.1 3.2-.2 4.8v1.5l-4.8.3c-1.6 0-3.2.1-4.8.2-.1 0-.2.1-.2.3 0 1 .1 2 .1 2.9 0 .1.1.2.2.2 1.6 0 3.2 0 4.9.1 1.5.1 3 .1 4.4.2v.8c-.1 3.9-.1 7.9-.1 11.8l-4.3.1c-1.6 0-3.2.1-4.8.2-.1 0-.2.1-.2.3 0 1 .1 2 .1 2.9 0 .1.1.2.2.2 1.6 0 3.2 0 4.9.1 1.4.1 2.9.1 4.3.1 0 3.2 0 5.6.1 9.1v2.5l-4.5.1c-1.6 0-3.2.1-4.8.2-.1 0-.2.1-.2.3 0 1 .1 2 .1 2.9 0 .1.1.2.2.2 1.6 0 3.2 0 4.9.1 1.5.1 3.1.1 4.6.2.1 2.5.1 2.9.2 5.4h-.2c-13.2-.1-26.4-.1-39.6-.2-12.9-.1-25.7 0-38.6.1v-15.6c0-1.8-.1-3.7.1-5.5.3-3.6 1.3-7.1 3.1-10.2.9-1.6 1.9-3 3.1-4.4.6-.7 1.2-1.4 1.9-1.9.6-.6 1.4-1.1 2.1-1.5 1.5-.9 3.2-1.7 4.9-2.4s3.4-1.4 5.1-2c3.5-1.2 7-2.4 10.5-3.4l5.3-1.5c1.8-.5 3.6-1.2 5.2-2.1 1.7-.9 3.2-1.9 4.7-3.1s2.8-2.5 3.9-4c0-.1.1-.1.1-.2v-7.1l.1-3.5v-.9c0-.3 0-.5.1-.7.2-.3.7-.5 1.2-.7 1.9 2.5 4.5 4.5 7.4 5.6 3 1.1 6 2 9.1 2.8 1.5.4 3.1.8 4.6 1.2l2.3.5c.6.1.9.8 1.2 1.5.5 1.4.6 3 .7 4.6s.1 3.1 0 4.7c0 .3.2.5.5.5h2.9c.3 0 .5-.2.5-.5 0-1.6 0-3.1.1-4.7.1-1.5.3-3.1.8-4.5.1-.3.3-.7.4-.9l.3-.3.1-.1h.2l2.3-.5c1.6-.4 3.1-.7 4.6-1.1 3.1-.8 6.2-1.6 9.2-2.7 1.5-.6 3-1.4 4.3-2.4 1.1-.9 2.2-1.9 3.1-3 .3.1.5.2.5.3v1.3l.1 3.5v7c0 .2.1.4.2.5 1.2 1.6 2.6 2.9 4.1 4.1 1.5 1.2 3.1 2.3 4.8 3.1 1.7.9 3.5 1.6 5.3 2.1l5.3 1.5c3.5 1 7.1 2.1 10.5 3.3 1.7.6 3.5 1.2 5.1 1.9 1.7.7 3.4 1.4 4.9 2.3.8.4 1.5.9 2.2 1.5s1.3 1.2 1.9 1.9c1.2 1.3 2.3 2.8 3.2 4.4 1.8 3.1 2.9 6.6 3.3 10.3.2 1.8.1 3.6.2 5.4l.1 5.5.2 11.1-40.4-.7zm-39.5-24.1c1.6 0 3.2 0 4.8-.1 1.5 0 3.1-.1 4.6-.2.1.8.1 1.7.2 2.6-1.7-.1-3.4-.2-5-.3s-3.2-.1-4.8-.1c-1.6 0-3.1.1-4.7.2-1.5.1-3.1.1-4.6.1 0-.8.1-1.7.1-2.5 1.5.1 3.1.1 4.6.2l4.8.1zm-.1-14.4c-1.6 0-3.1.1-4.7.2-1.5.1-3.1.1-4.6.1 0-.8.1-1.7.1-2.5 1.5.1 3.1.1 4.6.2l4.8.1c1.6 0 3.2 0 4.8-.1 1.5 0 3.1-.1 4.6-.2.1.8.1 1.7.2 2.6-1.7-.1-3.4-.2-5-.3-1.7-.1-3.3-.1-4.8-.1zm.1 29.9c1.6 0 3.2 0 4.8-.1 1.5 0 3.1-.1 4.6-.2.1.8.1 1.7.2 2.6-1.7-.1-3.4-.2-5-.3s-3.2-.1-4.8-.1c-1.6 0-3.1.1-4.7.2-1.5.1-3.1.1-4.6.1 0-.8.1-1.7.1-2.5 1.5.1 3.1.1 4.6.2l4.8.1z" fill="#184f58" stroke-width="none" opacity="1" stroke="none"></path></g><g id="svga-group-head" transform="matrix(1,0,0,1,0,0)"><g id="svga-group-ears-left-move" transform="matrix(1,0,0,1,0,0)"><g id="svga-group-ears-left"><path id="SvgjsPath6178" d="M61.3 90s-2.5-2.4-5.4-3.5-6.1.7-7.1 3.7c-1 2.9 1.3 15.1 5 19.5s6.2 4.8 8.7 2.5c2.5-2.3 7-10.8-1.2-22.2z" fill="#f0c7b1" stroke-width="none" opacity="1" stroke="none"></path><path id="SvgjsPath6179" d="M62.6 91.8c.4.6.8 1.3 1.2 1.9.4.6.7 1.4 1.1 2 .3.7.6 1.4.9 2.2.2.8.5 1.5.6 2.4.1.4.2.8.2 1.2l.1 1.2c0 1.7-.2 3.4-.7 4.9-.5 1.6-1.2 3-2.2 4.2-.2.3-.5.6-.8.8-.3.2-.6.5-.9.7-.6.4-1.3.7-2.1.8-.7.1-1.5 0-2.2-.3s-1.3-.7-1.8-1.2c-.6-.5-1.1-1-1.6-1.6s-.9-1.1-1.4-1.8c-1.7-2.6-2.6-5.7-3.4-8.7-.4-1.5-.8-3-1.1-4.6s-.6-3.2-.5-4.9c0-.4.1-.9.2-1.3.1-.2.1-.4.2-.6l.3-.6c.4-.7.9-1.3 1.5-1.8 1.2-1 2.6-1.4 4-1.2.7.1 1.4.3 2 .6.6.3 1.2.7 1.8 1.1 1.2.8 2.3 1.6 3.3 2.6l1.3 2zm-4.7-4.1c-.6-.3-1.2-.6-1.8-.8-.6-.2-1.2-.3-1.8-.3-1.2.1-2.3.6-3.3 1.4-.5.4-.9.9-1.2 1.5-.2.3-.3.6-.4.9-.1.3-.2.6-.2.9-.2 1.4-.1 3 .1 4.6.2 1.5.4 3.1.8 4.6.8 3 1.9 6 3.6 8.2.9 1.1 1.9 2.1 3 2.9s2.2 1.3 3.3 1.1c.5-.1 1.1-.3 1.6-.7.5-.4 1-.8 1.4-1.3.8-1 1.5-2.3 1.9-3.7.5-1.4.7-2.8.7-4.3s-.2-3-.4-4.5c-.6-3-2-5.8-3.7-8.2-1.3-.9-2.4-1.7-3.6-2.3z" fill="#e1ac8f" stroke-width="none" opacity="1" stroke="none"></path><path id="SvgjsPath6180" d="M52.6 89.6c3.3.6 5.4 6.1 6 9.8.1.1.1.2.2.3.4.6-.4 1.2-.8.6-.5-.8-1-1.6-1.8-1.9-1.4-.5-2.1 1.1-1.8 2.6.4 1.9 1.6 3 2.6 4.4.1.1 0 .3-.1.2-1.7-1-4.3-4.8-3.1-7.2.9-1.7 2.3-1.4 3.4-.4-.8-2.1-1.4-4.3-3-5.9-.5-.5-1.5-1.4-2.2-1.3-1.3.2-1.3 2.1-1.3 3.4-.1 1.7.1 3.4.4 5 0 .2-.2.2-.3.1-.7-2.4-2-10.4 1.8-9.7z" fill="#d19271" stroke-width="none" opacity="1" stroke="none"></path></g></g><g id="svga-group-ears-right-move" transform="matrix(1,0,0,1,0,0)"><g id="svga-group-ears-right"><path id="SvgjsPath6181" d="M138.7 90s2.5-2.4 5.4-3.5 6.1.7 7.1 3.7c1 2.9-1.3 15.1-5 19.5s-6.2 4.8-8.7 2.5c-2.5-2.3-7-10.8 1.2-22.2z" fill="#f0c7b1" stroke-width="none" opacity="1" stroke="none"></path><path id="SvgjsPath6182" d="M138.6 89.9c1.1-1 2.2-1.8 3.3-2.6.6-.4 1.2-.7 1.8-1.1.6-.3 1.3-.6 2-.6 1.4-.2 2.8.3 4 1.2.6.5 1.1 1.1 1.5 1.8l.3.6c.1.2.2.4.2.6.1.4.2.9.2 1.3.1 1.7-.2 3.3-.5 4.9s-.7 3.1-1.1 4.6c-.9 3-1.8 6-3.4 8.7-.4.7-.9 1.2-1.4 1.8-.5.6-1 1.1-1.6 1.6s-1.2.9-1.8 1.2c-.7.3-1.4.4-2.2.3-.7-.1-1.4-.4-2.1-.8-.3-.2-.6-.4-.9-.7-.3-.3-.6-.5-.8-.8-1-1.2-1.7-2.6-2.2-4.2s-.7-3.3-.7-4.9l.1-1.2c0-.4.1-.8.2-1.2.1-.8.4-1.6.6-2.4.3-.7.6-1.5.9-2.2.4-.7.7-1.4 1.1-2 .4-.6.8-1.3 1.2-1.9l1.3-2zm.1.1c-1.7 2.4-3 5.2-3.7 8.2-.3 1.5-.5 3-.4 4.5s.3 2.9.7 4.3 1.1 2.6 1.9 3.7c.4.5.8 1 1.4 1.3.5.4 1 .6 1.6.7 1.1.2 2.2-.3 3.3-1.1 1-.8 2.1-1.8 3-2.9 1.7-2.3 2.8-5.2 3.6-8.2.4-1.5.6-3.1.8-4.6s.3-3.1.1-4.6c0-.4-.1-.6-.2-.9-.1-.3-.3-.6-.4-.9-.3-.6-.7-1-1.2-1.5-.9-.8-2.1-1.3-3.3-1.4-.6 0-1.2.1-1.8.3-.6.2-1.2.5-1.8.8-1.4.6-2.5 1.4-3.6 2.3z" fill="#e1ac8f" stroke-width="none" opacity="1" stroke="none"></path><path id="SvgjsPath6183" d="M147.4 89.6c-3.3.6-5.4 6.1-6 9.8-.1.1-.1.2-.2.3-.4.6.4 1.2.8.6.5-.8 1-1.6 1.8-1.9 1.4-.5 2.1 1.1 1.8 2.6-.4 1.9-1.6 3-2.6 4.4-.1.1 0 .3.1.2 1.7-1 4.3-4.8 3.1-7.2-.9-1.7-2.3-1.4-3.4-.4.8-2.1 1.4-4.3 3-5.9.5-.5 1.5-1.4 2.2-1.3 1.3.2 1.3 2.1 1.3 3.4.1 1.7-.1 3.4-.4 5 0 .2.2.2.3.1.7-2.4 2-10.4-1.8-9.7z" fill="#d19271" stroke-width="none" opacity="1" stroke="none"></path></g></g><g id="svga-group-faceshape-wrap"><g id="svga-group-faceshape-single"><path id="SvgjsPath11699" d="M143.2 82.7v-.3C141.9 52 122.5 35.3 100 35.3S58.1 51.9 56.8 82.4v.3c-.1 2-.3 17.2 1.6 30.7 1.4 9.8 2.7 19.6 12.2 25.4s13.6 7.2 16.1 10.4c2.5 3.1 10.2 4.5 13.2 4.5s10.7-1.2 13.2-4.5c2.5-3.1 6.6-4.7 16.1-10.4 9.6-5.8 10.8-15.5 12.2-25.4 2.1-13.5 1.8-28.7 1.8-30.7z" fill="#f0c7b1" stroke-width="none" opacity="1"></path><path id="SvgjsPath11700" d="M141.4 113.4c2.1-13.5 1.8-28.7 1.8-30.7v-.3C141.9 52 122.5 35.3 100 35.3S58.1 51.9 56.8 82.4v.3c-.1 2-.3 17.2 1.6 30.7 1.4 9.8 2.7 19.6 12.2 25.4s13.6 7.2 16.1 10.4c2.5 3.1 10.2 4.5 13.2 4.5s10.7-1.2 13.2-4.5c2.5-3.1 6.6-4.7 16.1-10.4 9.6-5.8 10.8-15.5 12.2-25.4zm-15.2 24.4-9 5c-1.5.9-3.1 1.8-4.7 3.2-.4.3-.8.7-1.1 1.1l-.3.3-.2.2-.2.2c-.4.3-.9.7-1.5 1-2.5 1.2-5.8 1.9-8.8 2.1-1.3.1-2.9-.1-4.5-.4-1.5-.3-3.1-.7-4.4-1.2-.7-.3-1.3-.6-1.9-.9-.3-.2-.5-.3-.7-.5s-.2-.2-.6-.7c-1.4-1.6-3.1-2.7-4.6-3.8-3.1-1.8-6.1-3.4-9-5.1-1.5-.8-3-1.7-4.2-2.5-1.3-.9-2.4-1.8-3.4-3-.5-.5-1-1.2-1.4-1.8-.4-.7-.9-1.3-1.2-2-.7-1.4-1.4-2.8-1.9-4.5-1-3.2-1.6-6.4-2.3-9.8-.6-3.3-1.1-6.8-1.5-10.2-.4-3.4-.7-6.8-.9-10.2s-.3-6.9-.3-10.3c0-1.7.1-3.4.3-5.2.1-.8.1-1.7.2-2.5l.4-2.5c.2-.8.2-1.7.4-2.5l.6-2.4c.2-.8.4-1.6.7-2.4l.9-2.4c1.2-3.2 2.8-6.2 4.6-9 .4-.7 1-1.3 1.5-2 .5-.6 1-1.3 1.6-1.9l1.7-1.8.9-.9 1-.8c5-4.4 11-7.4 17.3-8.8 6.3-1.4 13-1.6 19.3-.2l2.4.5c.8.2 1.5.5 2.3.7 1.6.4 3 1.1 4.5 1.7.8.3 1.4.7 2.2 1.1.7.4 1.5.7 2.1 1.2l2 1.4c.3.2.7.4 1 .7l.9.8c5.1 4.2 9.4 9.6 12.1 15.8 2.7 6.3 4.1 13.1 4.4 20 0 3.4 0 6.9-.2 10.3s-.4 6.9-.9 10.3c-.4 3.4-.9 6.8-1.6 10.2-.7 3.4-1.3 6.8-2.3 9.9-1 3.2-2.4 6.1-4.3 8.5-3.1 3.6-6.7 5.5-7.4 6z" fill="#c27b55" stroke-width="none" opacity="1"></path></g></g><g id="svga-group-mouth-single-move" transform="matrix(1,0,0,1,0,0)"><g id="svga-group-mouth-single"><path id="SvgjsPath5840" d="M85.34 126.92s2.37-.51 5.3-1.54c2.87-1.01 6.09-2.05 8.83-2.14 3.98-.13 6.69.33 9.92 1.61 4.77 1.89 7.89 2.17 7.89 2.17s-2.81 2.71-10.17 4.41c-7.36 1.7-14.09.36-17.26-1.47-3.17-1.83-4.51-3.04-4.51-3.04z" fill="#da7c87" stroke-width="none" opacity="1" transform="translate(0 2)" stroke="none"></path><path id="SvgjsPath5841" d="M118.94 126.28c-.72.2-2.15 1.09-8.57.73-2.91-.16-5.81-.6-8.73-.65-2.85-.05-5.66.33-8.49.57-6.77.58-8.72-.58-9.3-.72-.16-.04-.27.19-.11.27 5.39 2.95 12.12.73 17.9.89 5.62.16 12.32 2.08 17.53-.92.27-.16.09-.26-.23-.17z" fill="#cb5f6c" stroke-width="none" opacity="1" transform="translate(0 2)" stroke="none"></path></g></g><g id="svga-group-eyes-left-move" transform="matrix(1,0,0,1,0,0)"><g id="svga-group-eyes-left"><g id="svga-group-eyesback-left"><path id="SvgjsPath7266" d="M89.5 94.7s-.9-1.9-2.9-3.3c-2-1.3-4.8-2.7-9-1.7-4.2 1-6.6 3.3-8.1 5.3 0 0 .4.5 1.4 1.1 1 .6 4.7 2.7 8.8 2.5 4.1-.2 7.8-2.5 8.5-2.9.7-.3 1.3-1 1.3-1z" fill="#ffffff" stroke-width="none" opacity="1"></path></g><g id="svga-group-eyesiriswrapper-left" transform="matrix(1,0,0,1,0,0)"><g id="svga-group-eyesiriscontrol-left" transform="matrix(1,0,0,1,0,0)"><g id="svga-group-eyesiris-left"><path id="SvgjsPath8009" d="M80.1 88.1c3 0 5.5 2.4 5.5 5.5S83.1 99 80.1 99s-5.5-2.4-5.5-5.5 2.4-5.4 5.5-5.4z" fill="#4e60a3" stroke-width="none" opacity="1"></path><path id="SvgjsPath8010" d="M80.1 99.3c-3.2 0-5.7-2.6-5.7-5.7 0-3.2 2.6-5.7 5.7-5.7 3.2 0 5.7 2.6 5.7 5.7s-2.6 5.7-5.7 5.7zm0-11c-2.9 0-5.2 2.3-5.2 5.2s2.3 5.2 5.2 5.2 5.2-2.3 5.2-5.2c-.1-2.8-2.4-5.2-5.2-5.2z" fill="#253984" stroke-width="none" opacity="1"></path><path id="SvgjsPath8011" d="M80.1 90.6c1.6 0 2.9 1.3 2.9 2.9s-1.3 2.9-2.9 2.9-2.9-1.3-2.9-2.9 1.2-2.9 2.9-2.9z" fill="#000000" stroke-width="none" opacity="1"></path><path id="SvgjsPath8012" d="M78.7 90.5c.6 0 1 .5 1 1s-.5 1-1 1-1-.5-1-1 .5-1 1-1zm3.4 4.7c.2 0 .4.2.4.4s-.2.4-.4.4-.4-.2-.4-.4.2-.4.4-.4z" fill="#ffffff" stroke-width="none" opacity="1"></path></g></g></g><g id="svga-group-eyesfront-left"><path id="SvgjsPath7274" d="M69.4 94.6c0 6.4 4.7 11.5 10.6 11.5s10.6-5.2 10.6-11.5S85.9 83.1 80 83.1s-10.6 5.1-10.6 11.5zm.1.5c1.5-1.9 4-4.3 8.1-5.3s7 .4 9 1.7c2 1.3 2.9 3.3 2.9 3.3s-.6.6-1.3 1.1c-.7.4-4.4 2.7-8.5 2.9-4.1.2-7.8-1.9-8.8-2.5-.9-.7-1.4-1.2-1.4-1.2z" fill="#f0c7b1" stroke-width="none" opacity="1" stroke="none"></path><path id="SvgjsPath7275" d="M89 91.7c-4.4-3.6-9.7-4.3-15-2.6-.2.1-.3-.2-.1-.3 5-2.2 11.3-.9 15.2 2.8.1 0 0 .1-.1.1z" fill="#e1ac8f" stroke-width="none" opacity="1" stroke="none"></path><path id="SvgjsPath7276" d="M68.9 96c.2-.2.5-.4.7-.6 5.1 5.2 15 4.5 20-.4 0 0 0 .1.1.1.1.2.4 0 .3-.2 0-.1-.1-.1-.1-.2.1-.1 0-.3-.2-.3-2.1-3.6-6.3-5.4-10.4-5.2-3.9.2-9.2 2.8-10.7 6.6-.2.3.1.4.3.2zm.9-.8c1.2-1.1 2.2-2.4 3.7-3.3 1.6-1 3.3-1.7 5.2-2 4.2-.7 8.4 1.3 10.6 4.8-2.8 2.1-5.9 3.6-9.5 3.7-3.9.1-6.7-1.3-10-3.2z" fill="#000000" stroke-width="none" opacity="1" stroke="none"></path></g></g></g><g id="svga-group-eyes-right-move" transform="matrix(1,0,0,1,0,0)"><g id="svga-group-eyes-right"><g id="svga-group-eyesback-right"><path id="SvgjsPath7267" d="M110.5 94.7s.9-1.9 2.9-3.3c2-1.3 4.8-2.7 9-1.7 4.2 1 6.6 3.3 8.1 5.3 0 0-.4.5-1.4 1.1-1 .6-4.7 2.7-8.8 2.5-4.1-.2-7.8-2.5-8.5-2.9-.7-.3-1.3-1-1.3-1z" fill="#ffffff" stroke-width="none" opacity="1"></path></g><g id="svga-group-eyesiriswrapper-right" transform="matrix(1,0,0,1,0,0)"><g id="svga-group-eyesiriscontrol-right" transform="matrix(1,0,0,1,0,0)"><g id="svga-group-eyesiris-right"><path id="SvgjsPath8013" d="M119.9 88.1c3 0 5.5 2.4 5.5 5.5S123 99 119.9 99s-5.5-2.4-5.5-5.5 2.5-5.4 5.5-5.4z" fill="#4e60a3" stroke-width="none" opacity="1"></path><path id="SvgjsPath8014" d="M119.9 99.3c-3.2 0-5.7-2.6-5.7-5.7 0-3.2 2.6-5.7 5.7-5.7 3.2 0 5.7 2.6 5.7 5.7s-2.5 5.7-5.7 5.7zm0-11c-2.9 0-5.2 2.3-5.2 5.2s2.3 5.2 5.2 5.2 5.2-2.3 5.2-5.2c0-2.8-2.3-5.2-5.2-5.2z" fill="#253984" stroke-width="none" opacity="1"></path><path id="SvgjsPath8015" d="M119.9 90.6c1.6 0 2.9 1.3 2.9 2.9s-1.3 2.9-2.9 2.9-2.9-1.3-2.9-2.9 1.3-2.9 2.9-2.9z" fill="#000000" stroke-width="none" opacity="1"></path><path id="SvgjsPath8016" d="M118.6 90.5c.6 0 1 .5 1 1s-.5 1-1 1-1-.5-1-1 .5-1 1-1zm3.4 4.7c.2 0 .4.2.4.4s-.2.4-.4.4-.4-.2-.4-.4.2-.4.4-.4z" fill="#ffffff" stroke-width="none" opacity="1"></path></g></g></g><g id="svga-group-eyesfront-right"><path id="SvgjsPath7277" d="M120 83.1c-5.9 0-10.6 5.2-10.6 11.5s4.7 11.5 10.6 11.5 10.6-5.2 10.6-11.5-4.8-11.5-10.6-11.5zm9.1 13.1c-1 .6-4.7 2.7-8.8 2.5-4.1-.2-7.8-2.5-8.5-2.9-.7-.4-1.3-1.1-1.3-1.1s.9-1.9 2.9-3.3c2-1.3 4.8-2.7 9-1.7s6.6 3.3 8.1 5.3c0 .1-.5.6-1.4 1.2z" fill="#f0c7b1" stroke-width="none" opacity="1" stroke="none"></path><path id="SvgjsPath7280" d="M111 91.7c4.4-3.6 9.7-4.3 15-2.6.2.1.3-.2.1-.3-5-2.2-11.3-.9-15.2 2.8-.1 0 0 .1.1.1z" fill="#e1ac8f" stroke-width="none" opacity="1" stroke="none"></path><path id="SvgjsPath7281" d="M131.5 95.8c-1.5-3.8-6.8-6.4-10.7-6.6-4.1-.2-8.3 1.6-10.4 5.2-.1 0-.3.2-.2.3 0 .1-.1.1-.1.2-.1.2.2.4.3.2 0 0 0-.1.1-.1 5 5 14.9 5.7 20 .4.2.2.4.4.7.6.1.2.4.1.3-.2zm-11.3 2.6c-3.6-.1-6.7-1.7-9.5-3.7 2.2-3.6 6.4-5.5 10.6-4.8 1.8.3 3.6 1 5.2 2 1.5.9 2.5 2.2 3.7 3.3-3.3 1.9-6.1 3.3-10 3.2z" fill="#000000" stroke-width="none" opacity="1" stroke="none"></path></g></g></g><g id="svga-group-facehighlight-single"></g><g id="svga-group-eyebrows-left-move" transform="matrix(1,0,0,1,0,0)"><g id="svga-group-eyebrows-left-rotate" transform="matrix(1,1.7453292144864463e-9,-1.7453292144864463e-9,1,1.4176200124893512e-7,-1.3606350535155798e-7)"><g id="svga-group-eyebrows-left"><path id="SvgjsPath8294" d="M66.9 83c2-2.2 4.8-3.6 7.7-4.3.7-.3 1.4-.5 2-.7 2.2-.6 4.9-1.4 7.1-1.1h1.1c.6 0 1.1 0 1.7.1 1-.2 2.2-.5 3 .3 1-.4 2 .7 2.5 1.5.7 1.1.7 2.3.2 3.5.3 1.2-1.3 2.2-2.3 2.6-1.3.5-3.3.5-4.8 0-1 .1-1.9.1-2.9 0-1.4.5-2.9.1-4.3-.1-1.1.2-2.2.1-3.3-.1-1.7-.3-3.6-.1-5.2-.5-.4.1-.9.1-1.3.1-1 .5-2-.5-1.2-1.3z" fill="#2a232b" stroke-width="none" opacity="1"></path><path id="SvgjsPath8295" d="M85.1 84.7c1.1-.8 2-1.8 2.9-2.7 1-1.1 1.5-2.3 1.9-3.7.1-.3.5-.2.5.1-.2 1.6-.7 2.9-1.8 4.1-.8.9-2 2.6-3.3 2.7-.4.1-.5-.3-.2-.5zm2.4 0c1.7-1 3.9-2.8 3.9-4.9 0-.2.3-.3.4-.1.3 1.3-.4 2.4-1.2 3.4-.8 1-1.7 1.9-3 2-.2 0-.3-.3-.1-.4zm-4.2-7.8c2.5 1.9 2.2 5.6.7 8-.1.2-.4.1-.3-.2.9-2.8 1-5.1-.7-7.6-.1-.1.2-.4.3-.2zm-2.6.9c2 1.6 3 4.8 2.6 7.3 0 .2-.3.1-.3-.1-.2-1.3-.3-2.6-.8-3.9-.4-1.1-1.1-2.1-1.7-3.1-.2-.2.1-.3.2-.2zm-5.3 1.6c1.3-.6 2.6.5 3.5 1.4 1.1 1.2 2 2.6 2 4.2 0 .2-.3.2-.3.1-.3-1.3-1-2.5-1.9-3.5-.9-1-1.9-1.4-3.1-1.9-.2-.1-.3-.3-.2-.3zm-5.8 1.4c1.4-.6 2.9.2 4.2.9 1.3.7 2.3 1.5 2.8 2.8.1.3-.4.5-.5.2-1.1-2.2-4.1-3.3-6.4-3.4-.4.1-.4-.4-.1-.5zm-2.2 2.5c1.7-.5 3.4 0 5 .7.3.1 0 .6-.3.4-1.5-.7-3.1-.8-4.7-.9-.1.1-.2-.1 0-.2z" fill="#3a353a" stroke-width="none" opacity="1"></path><path id="SvgjsPath8296" d="M76.4 77.2c-2.3.7-4.5 1.6-6.5 2.8-1.6 1-3.2 2.1-3.8 3.9-.1.2.1.4.3.5 0 .1.1.1.2.1 6.7.9 13.7 1.2 20.5 1 2.2-.1 4.7-.1 5.7-2.4.8-1.9.5-4.5-1-6.1-.3-.3-.7.1-.5.4.1.2.2.4.2.6-.9-1.1-2.2-2-3.5-1.9-.1 0-.2.2-.2.3-1.5-.3-3-.3-4.4-.3-2.4.2-4.7.5-7 1.1zm-4.5 2.7c.9.4 1.8 1 2.5 1.8.8.8 1.3 1.8 2.1 2.6.2.2.5 0 .4-.2-.7-1.8-2.2-3.7-4.1-4.5 1.6-.7 3.2-1.2 4.7-1.6 2.1-.6 4.3-.9 6.5-.9 1.9 0 3.8.4 5.8.5.2.1.3.2.5.3.7.5 1.3 1.2 1.8 2 .5 2.2.1 4.5-2.8 4.9-.6.1-1.1.1-1.7.2 1.9-1.1 3.2-3.5 3.3-5.6 0-.2-.3-.2-.3-.1-.4 1.3-1.1 2.6-1.9 3.6-.7.8-1.7 1.5-2.5 2.2h-.8c2-1.3 3.3-4 3.2-6.3 0-.2-.3-.3-.4-.1-.4 1.2-.8 2.5-1.5 3.6s-1.6 1.9-2.5 2.8h-1.7c.8-2.2.4-5-.9-6.9-.2-.3-.6-.1-.5.2.3 1.1.7 2.1.9 3.2.2 1.2.1 2.3 0 3.5h-.1c-2.3 0-4.5-.1-6.8-.3-.9-1-2.6-1.9-4-1.9-.2 0-.3.3-.1.4.6.3 1.3.5 1.9.8.3.2.7.3 1 .5-2.3-.2-4.6-.3-6.9-.4 1-1.9 2.8-3.3 4.9-4.3z" fill="#1b141c" stroke-width="none" opacity="1"></path></g></g></g><g id="svga-group-eyebrows-right-move" transform="matrix(1,0,0,1,0,0)"><g id="svga-group-eyebrows-right-rotate" transform="matrix(1,1.7453292144864463e-9,-1.7453292144864463e-9,1,1.4176202967064455e-7,-2.127084570702209e-7)"><g id="svga-group-eyebrows-right"><path id="SvgjsPath8297" d="M133.1 83c-2-2.2-4.9-3.6-7.7-4.3-.7-.3-1.4-.5-2-.7-2.2-.6-4.9-1.4-7.1-1.1h-1.1c-.6 0-1.1 0-1.7.1-1-.2-2.2-.5-3 .3-1-.4-2 .7-2.5 1.5-.7 1.1-.7 2.3-.2 3.5-.3 1.2 1.3 2.2 2.3 2.6 1.3.5 3.3.5 4.8 0 1 .1 1.9.1 2.9 0 1.4.5 2.9.1 4.3-.1 1.1.2 2.2.1 3.3-.1 1.7-.3 3.6-.1 5.2-.5.4.1.9.1 1.3.1 1 .5 2-.5 1.2-1.3z" fill="#2a232b" stroke-width="none" opacity="1"></path><path id="SvgjsPath8298" d="M114.9 84.7c-1.1-.8-2-1.8-2.9-2.7-1-1.1-1.5-2.3-1.9-3.7-.1-.3-.5-.2-.5.1.2 1.6.7 2.9 1.8 4.1.8.9 2 2.6 3.3 2.7.4.1.5-.3.2-.5zm-2.4 0c-1.7-1-3.9-2.8-3.9-4.9 0-.2-.3-.3-.4-.1-.3 1.3.4 2.4 1.2 3.4.8 1 1.7 1.9 3 2 .2 0 .3-.3.1-.4zm4.2-7.8c-2.5 1.9-2.2 5.6-.7 8 .1.2.4.1.3-.2-.9-2.8-1-5.1.7-7.6.1-.1-.2-.4-.3-.2zm2.6.9c-2 1.6-3 4.8-2.6 7.3 0 .2.3.1.3-.1.2-1.3.3-2.6.8-3.9.4-1.1 1.1-2.1 1.7-3.1.2-.2-.1-.3-.2-.2zm5.3 1.6c-1.3-.6-2.6.5-3.5 1.4-1.1 1.2-2 2.6-2 4.2 0 .2.3.2.3.1.3-1.3 1-2.5 1.9-3.5.9-1 1.9-1.4 3.1-1.9.2-.1.3-.3.2-.3zm5.8 1.4c-1.4-.6-2.9.2-4.2.9-1.3.7-2.3 1.5-2.8 2.8-.1.3.4.5.5.2 1.1-2.2 4.1-3.3 6.4-3.4.4.1.4-.4.1-.5zm2.2 2.5c-1.7-.5-3.4 0-5 .7-.3.1 0 .6.3.4 1.5-.7 3.1-.8 4.7-.9.1.1.2-.1 0-.2z" fill="#3a353a" stroke-width="none" opacity="1"></path><path id="SvgjsPath8299" d="M116.6 76.3c-1.4 0-3 0-4.4.3 0-.1-.1-.2-.2-.3-1.3-.2-2.7.7-3.5 1.9.1-.2.2-.4.2-.6.2-.3-.2-.7-.5-.4-1.4 1.6-1.8 4.1-1 6.1 1 2.3 3.5 2.3 5.7 2.4 6.8.3 13.8-.1 20.5-1 .1 0 .1-.1.2-.1.2-.1.4-.2.3-.5-.6-1.8-2.2-3-3.8-3.9-2-1.2-4.2-2.2-6.5-2.8-2.3-.8-4.6-1.1-7-1.1zm16.4 7.8c-2.3.1-4.6.3-6.9.4.3-.2.6-.4 1-.5.6-.3 1.3-.5 1.9-.8.2-.1.1-.4-.1-.4-1.3 0-3.1.9-4 1.9-2.3.2-4.5.3-6.8.3h-.1c-.1-1.2-.2-2.3 0-3.5.2-1.1.6-2.2.9-3.2.1-.3-.3-.5-.5-.2-1.3 1.9-1.7 4.7-.9 6.9h-1.7c-.9-.9-1.8-1.7-2.5-2.8-.7-1.1-1.1-2.3-1.5-3.6-.1-.2-.4-.2-.4.1-.1 2.3 1.2 4.9 3.2 6.3h-.8c-.8-.7-1.8-1.3-2.5-2.2-.9-1-1.5-2.3-1.9-3.6-.1-.2-.4-.2-.3.1.2 2.1 1.4 4.5 3.3 5.6-.6 0-1.1-.1-1.7-.2-2.9-.4-3.3-2.7-2.8-4.9.5-.7 1.1-1.5 1.8-2 .2-.1.3-.2.5-.3 1.9-.1 3.8-.5 5.8-.5 2.2 0 4.4.3 6.5.9 1.5.4 3.1.9 4.7 1.6-1.9.8-3.4 2.7-4.1 4.5-.1.2.3.4.4.2.8-.8 1.3-1.8 2.1-2.6.7-.8 1.5-1.3 2.5-1.8 2 1.1 3.9 2.5 4.9 4.3z" fill="#1b141c" stroke-width="none" opacity="1"></path></g></g></g><g id="svga-group-beardwrap"><g id="svga-group-beard-single-move" transform="matrix(1,0,0,1,0,0)"><g id="svga-group-beard-single"></g></g></g><g id="svga-group-mustache-single-move" transform="matrix(1,0,0,1,0,0)"><g id="svga-group-mustache-single"></g></g><g id="svga-group-nose-single-move" transform="matrix(1,0,0,1,0,0)"><g id="svga-group-nose-single"><path id="SvgjsPath5474" d="M105.53 106.38c.26.82 3.73 4.55 3.79 6.57.06 2.02-2.08 4.04-4.74 2.21 0 0-2.46 1.89-4.74 1.64s-3.54-1.83-3.54-1.83-2.15.82-3.98.19c-1.83-.63-2.27-2.84-.95-4.86 1.33-2.02 3.6-5.49 4.1-7.45.52-1.96 7.09-5.62 10.06 3.53z" fill="#f0c7b1" stroke-width="none" opacity="1" transform="translate(0 1)" stroke="none"></path><path id="SvgjsPath5475" d="M105.49 105.94c-.16-.2-.5.06-.36.28.93 1.43 1.95 2.83 2.81 4.31.59 1 1.18 2.25.77 3.46-.67 1.98-2.42 1.87-3.83 1.11.53-.68.84-1.48.77-2.36-.02-.22-.32-.41-.48-.2-1.4 1.76-2.29 3.6-4.89 3.7-2.75.11-4.52-2.12-5.25-4.51-.06-.21-.35-.16-.36.05-.07 1.1.27 2.16.87 3.06-.4.07-.8.15-1.2.17-1.28.08-1.49-.02-2.33-1.09-.89-1.12-.89-1.4-.4-2.65.23-.58.58-1.08.91-1.61 1.08-1.68 2.04-3.39 2.75-5.26 1.43-3.73 2.05-7.86 1.36-11.81-.03-.17-.29-.12-.29.04-.01 3.2-.21 6.36-1.15 9.44-.97 3.19-2.81 5.59-4.34 8.46-.8 1.49-1.13 3.46.23 4.74 1.35 1.28 3.43.87 5.01.27.94 1.02 2.24 1.72 3.61 1.85 1.55.14 3.58-.61 4.83-1.88 1.45 1.61 4.23.86 4.96-1.19 1.09-3.12-2.3-6.24-4-8.38z" fill="#c27b55" stroke-width="none" opacity="1" transform="translate(0 1)" stroke="none"></path><path id="SvgjsPath5476" d="M102.24 108.78c-.89-.83-2.3-1.07-3.3-.3-.36.28-.58.63-.67 1-.17.06-.34.16-.48.3-.76.74-.44 1.9.21 2.59.55.59 1.45.87 2.24.83.97-.05 1.85-.51 2.39-1.33.63-.95.44-2.31-.39-3.09z" fill="#f8d5c3" stroke-width="none" opacity="1" transform="translate(0 1)" stroke="none"></path></g></g><g id="svga-group-hair-front"><path id="SvgjsPath10685" d="M135.8 66.3c-1 3.3-1 5.1-.9 7.6.1 2.4-1 5.1 1.1 4.8 2.1-.3 4.4-.7 5.7-4.2 1.3-3.5 3-8.2 2.9-10-.1-1.8-3.7-9-3.7-9l-3.3 7.8-1.8 3z" fill="#221b23" stroke-width="none" opacity="1" stroke="none"></path><path id="SvgjsPath10686" d="M143.8 74c.4-3.6 1-8.5.2-9.3-.8-.8-5.6 2.2-6 4.8s-.4 7.5-.4 7.5c-.7 2.7-.8 4-.7 5.8.1 1.8-1 3.9.7 3.6.1 0 .2 0 .2-.1-.3 2.3-.1 3.8.2 5.4.3 2.2-.7 4.5 1 4.6s2.7-.6 3.5-3.8c.8-3.2 1.3-6.4 1.4-9.5.1-2.5.2-6.3-.2-8.4.1-.2.1-.4.1-.6zm-81.6 6.8c-.5-1.6-.3-4-1-5.3s-3.5-6.4-3.5-6.4c-.9 1.8-2.3 3.9-2.3 7.1 0 2.7-.4 4.6.2 6.2-.1 1.2-.1 2.4 0 3.1.2 1.1 1.8 8.1 3.4 9.1 1.4.8 2.4-2.9 2.2-6.2 1.6-2.9 1.5-6.1 1-7.6z" fill="#1b141c" stroke-width="none" opacity="1" stroke="none"></path><path id="SvgjsPath10687" d="M59.3 61c-.9.8-2.3 3.2-2.7 5.7s-.4 5 .1 6.2c.6 1.1 3.6 7.3 5.6 6.3 2-1 1.3-3 1.1-6.2s.1-3.7-.7-6.4c-.8-2.8-3.4-5.6-3.4-5.6zm8.9-37.1c-.7-2.5 3 1.4 2.9 7.5-.1 6.2 1 10.6 3.8 13 2.8 2.4 13.2 11.2 13.2 11.2s-2.4.7-7.2-.7-11-3.5-14.2-7.6-2.3-10.2-.9-13.2c1.4-2.9 3.3-6.9 2.4-10.2zm51.4 32c2.2-.6 5.8-1.7 7.5-.6 1.6 1.1 1.7 4.7 5.3 4.6 3.6-.1 6.8-6.5 6.5-9.4-.2-2.9-2.4-7.8-5.9-9.1-3.5-1.3-3.1 2.6-3.5 4.1-.4 1.5.1 2.5-3.5 5.1-3.5 2.7-6.4 5.3-6.4 5.3z" fill="#221b23" stroke-width="none" opacity="1" stroke="none"></path><path id="SvgjsPath10688" d="M131.3 58.4c-.2 1.1-.4 4.4 1.1 6.4s.6 4.3 3.8 3.1c3.2-1.2 6.9-5.4 6.6-8.5-.2-3.1-2.7-10.6-5.3-12-2.7-1.3-2.9 4.6-2.9 4.6l-3.3 6.4zM66.4 40c-1.8 2.1-4.9 2.8-4.2 6.5s5.4 7.7 9.8 8.3 7.7-.1 8.3-.6-9.6-6.2-9.6-6.2l-4.3-8z" fill="#2a232b" stroke-width="none" opacity="1" stroke="none"></path><path id="SvgjsPath10689" d="M62.8 45.5c-1.2 1-2.4 1.5-2.8 4.4-.4 2.9-.5 3.4 1.2 6.7 1.8 3.3 2 5.3 4.6 4.7 2.6-.6 5.5-2.9 5.2-6.5s-2.7-1.3-3.9-4.5-2.1-3.9-2.1-3.9l-2.2-.9z" fill="#221b23" stroke-width="none" opacity="1" stroke="none"></path><path id="SvgjsPath10690" d="M60.9 52.2c-1.2 1.6-2.6 1.9-2.9 4.9s-1.3 2.9.7 6.4c2 3.5 4 7.7 5.9 5.7s1.6-3 1.9-5.4c.3-2.4-.6-4.9-1.7-7-1.2-2.2-3.9-4.6-3.9-4.6zm34.5 5s-6.4 0-10.1-1.8c-3.7-1.8-11.6-8.7-13.2-13.6s.4-14.4-.8-18.9c0 0 1.5 3.8 2.9 5.8s4.4 2 9.2 4.8 9.1 8.5 9.8 12.8 2.2 10.9 2.2 10.9z" fill="#1b141c" stroke-width="none" opacity="1" stroke="none"></path><path id="SvgjsPath10691" d="M73.7 18.1c-.1-.5-2 6.7 2 10.6S85.9 37 87.2 42.2s.9 6.1 2.3 9.3 3.2 6.4 5.8 7.6c2.6 1.2 7.4-.2 7.4-1s4.1 3.5 6.8 2.2c2.7-1.3 10.3-10.6 11.4-17.2s-2.4-13.6-6.8-14.7-21.6-2.4-25.2-4.3c-3.6-1.9-5.2-3.7-5.6-5.1 0 0-.3 3.4 3 7.4S96 33 96 33s4.7 1.2 5.3 5c0 0-8.2-6.4-15-8.9s-10-.9-12.6-11z" fill="#221b23" stroke-width="none" opacity="1" stroke="none"></path><path id="SvgjsPath10692" d="M104.5 60.4s-4.2.3-5.8-4.5S98 42 95.1 37.1s-13.9-7.4-16.7-10.3c-2.7-2.9-3.8-9.3-3.8-9.3s2.7 7.9 6.7 8.4c3.9.5 17.3 4.9 21.7 6.9s9.1 10.3 8.2 15.5-2.5 12.6-6.7 12.1z" fill="#2a232b" stroke-width="none" opacity="1" stroke="none"></path><path id="SvgjsPath10693" d="M110.6 26.7c.6 0 10.8 2.9 15.9 4.5s17 10.3 4.4 17.8-8 8.8-20.3 10.9c-3.4.6 3.6-5.6 6.3-11 2.7-5.4 2.5-14.6 1-16.6s-7.3-5.6-7.3-5.6z" fill="#1b141c" stroke-width="none" opacity="1" stroke="none"></path><path id="SvgjsPath10694" d="M96.3 58.9c-3.5-3-5.5-6.7-6.4-11.2-.6-3.2-.3-6.8-1.7-9.7-.9-1.8-2.2-3-3.8-4.1-4.4-3.1-7.9-5-9.8-10.5-.1-.2-.4-.1-.3.1.8 3 2.2 5.6 4.6 7.6 4.2 3.7 8.6 4.8 9.5 11.3.8 6.3 1.6 13.5 7.9 16.8-.1 0 .1-.2 0-.3zm2.5-.6c-6.1-2.7-8.2-8.4-8.7-14.6 0-.2-.3-.2-.3 0-.2 6.2 2.7 12.8 8.9 14.9.2 0 .3-.2.1-.3zm3.5.5c-3.5-4-4.4-8.4-4.3-13.6.1-2.9.5-5.9-1.2-8.5-1.4-2.2-3.7-3.1-5.9-4.2-3.7-1.8-7.3-3.6-11-5.1-.1 0-.2.1-.1.2 3.5 2 7.2 3.7 10.8 5.5 2.8 1.4 5.2 2.4 6.3 6 .6 1.9.2 4.2.2 6.1-.2 5.5 1.1 9.9 5 13.8.1.2.4-.1.2-.2zm3.6-.3c-3.7-3.2-1.6-6.9-1.5-11 0-2.6-.7-4.9-2-7.1-.1-.2-.3 0-.2.1 1.1 2.4 1.7 4.9 1.6 7.5-.1 1.8-.8 3.5-.8 5.3-.1 2.3 1 4 2.8 5.3.1.2.2 0 .1-.1zm18.3-25.6c-.2-.1-.3.2-.1.3.8.3 1.6.5 2.4.8v.1c7.6 6.6-2.7 14.6-7.7 18.1-.2.1 0 .4.2.3 5.3-2.8 16-12.5 8.1-18.3 3.1 1.3 3.8 2 4.7 5.5.8 3.2.4 4.9-2 7.4-1.3 1.4-3.1 2.4-4.8 3.4-4.2 2.5-7.9 5.8-12.2 8.2-.1 0 0 .2.1.1 4.4-2 8.1-5.5 12.3-8 2.8-1.7 5.7-3.5 7.1-6.5 3-6.4-2.7-10-8.1-11.4zm-10.5-3.3c-.1 0-.2.2 0 .2 4.6 1 9.8 2.1 10.5 7.7.5 4-2.1 7.8-4.8 10.4-3.5 3.3-7.4 5.9-8.2 11-.1.4.5.6.6.2 1.5-8.6 12.7-10.9 13.2-20.3.4-6.8-5.6-8.8-11.3-9.2zm-1.1 8.2c-4.2-9.5-17.4-8.6-24.7-14.5-.1-.1-.3.1-.2.2 7.2 6.7 18.9 5.6 24.3 14.6.3.3.8 0 .6-.3zm25.8 14.3c-.1-.2-.4-.2-.4 0 .1 5.3-6.3 8.5-4.5 14 .1.2.4.1.3-.1-1.3-5.4 5.8-8.4 4.6-13.9zm3.1 7.4c0-.2-.3-.2-.4 0-.6 1.8-1 3.6-1.9 5.3-.8 1.4-1.9 2.5-2.6 3.9-1 2-1.1 4-.5 6.1.1.2.4.1.3-.1-.6-4 1.4-5.9 3.3-9.1 1.1-1.9 1.6-4 1.8-6.1zm.7 2c0-.3-.4-.2-.5.1-.2 2.2-.4 4.1-1.2 6.1-.1.2.2.4.3.2 1-1.9 1.7-4.2 1.4-6.4zm0 11.7c0-.2-.3-.2-.4-.1-.6 3-1.6 5.7-2.5 8.6-.6 1.9-.8 3.6 0 5.4.1.3.6.1.5-.2-1-2.8.3-5.1 1.2-7.7.8-1.9 1.2-3.9 1.2-6zm-.2 8c-.5 1.1-.6 2.5-.6 3.7 0 .2.4.2.4 0 0-1.2.3-2.3.5-3.5 0-.3-.2-.5-.3-.2zM86.9 53.1c-4.5-1.6-8.2-3.9-10.6-8.2-2.5-4.4-2.2-9-2.3-13.9 0-.3-.5-.3-.5 0-.9 9.7 2.8 20 13.3 22.4.3.1.3-.2.1-.3zm-8.6-2c-2.7-1.7-5.5-4.7-7-7.5-1.9-3.4-1.8-7.3-1.7-11.1 0-.3-.4-.3-.4 0-.5 7.7 1.7 15 9 18.9.1.1.3-.2.1-.3zm-3.7.1c-3.8-1.8-6.7-4.4-8.4-8.4-.1-.2-.5-.2-.4.1 1.2 4 4.4 7.7 8.6 8.7.2.1.4-.3.2-.4zm-4.3 1.6c-1.7-.7-3.3-1.5-4.8-2.5-.1-.1-.2.1-.1.2 1.5 1 3.1 1.9 4.9 2.5.1-.1.1-.2 0-.2zM66 57.6c-1.6-1.5-3.2-2.8-4.4-4.6-.1-.2-.4 0-.3.2 1.2 1.8 2.7 3.6 4.5 4.7.1 0 .3-.2.2-.3zm55.6-20.7c-.4-3.5-3.1-6.2-6.5-6.7-.2 0-.2.2-.1.2 4.1 1.4 7.1 5.1 5.7 9.7-.8 2.6-3 4.6-4.6 6.7-.1.1.1.2.2.1 2.6-2.9 5.8-5.7 5.3-10zm-10.2-3.3c-.2-.2-.4.1-.2.2 5.6 6.5.8 14.3-1.4 21.2-.1.2.2.3.3.1 2.6-6.6 7.5-15.5 1.3-21.5zm-16.7-.9c-.2 0-.3.2-.1.3 8.9 2.5 3.9 14.4 6.7 20.7.1.2.3 0 .3-.1-1.8-6.4 2.2-18.9-6.9-20.9z" fill="#3a353a" stroke-width="none" opacity="1" stroke="none"></path></g><g id="svga-group-glasses-single-move" transform="matrix(1,0,0,1,0,0)"><g id="svga-group-glasses-single"><path id="SvgjsPath9677" d="M95.79 91.36s.32-2.16-3.48-3.45c-2.88-.98-5.89-1.11-8.31-1.11s-10.25-.09-12.23.09c-1.98.19-4.96.38-5.95 3.32-.99 2.94.33 7.88 4.3 10.35 3.97 2.47 12.23 2.66 17.52 1.04 5.28-1.6 7.71-5.27 8.15-10.24z" fill="#ffffff" stroke-width="none" opacity="0.44"></path><path id="SvgjsPath9678" d="M104.21 91.36s-.32-2.16 3.48-3.45c2.88-.98 5.89-1.11 8.31-1.11s10.25-.09 12.23.09c1.98.19 4.96.38 5.95 3.32.99 2.94-.33 7.88-4.3 10.35-3.97 2.47-12.23 2.66-17.52 1.04-5.28-1.6-7.71-5.27-8.15-10.24z" fill="#ffffff" stroke-width="none" opacity="0.44"></path><path id="SvgjsPath9679" d="M95.78 90.77s3.57-1.69 8.41 0v.98s-5.18-.98-8.5 0l.09-.98z" fill="#070201" stroke-width="none" opacity="1"></path><path id="SvgjsPath9680" d="M79.82 103.04c-4.1 0-7.71-.78-9.9-2.15-3.57-2.22-4.97-6.32-4.76-9.18l.01-.13h-2.4v-2.06h2.93l.03-.07c1.22-2.47 3.98-2.73 5.81-2.91l.19-.02c.85-.08 2.8-.12 5.97-.12 1.45 0 2.93.01 4.18.01.9.01 1.62.01 2.12.01 2.38 0 5.48.13 8.43 1.13 3.9 1.32 3.76 3.59 3.73 3.84-.49 5.46-3.32 9.02-8.42 10.58-2.24.69-5.06 1.07-7.92 1.07zm-2.07-15.89c-3.18 0-5.13.04-5.95.12l-.19.02c-2.03.19-4.56.43-5.44 3.05-.99 2.93.44 7.61 4.14 9.91 2.07 1.29 5.53 2.02 9.51 2.02 2.77 0 5.58-.37 7.7-1.02 4.85-1.48 7.43-4.73 7.89-9.93.02-.21.1-1.93-3.23-3.06-2.85-.97-5.87-1.09-8.19-1.09-.5 0-2.22-.01-2.22-.01-1.16 0-2.6-.01-4.02-.01z" fill="#26120b" stroke-width="none" opacity="1"></path><path id="SvgjsPath9681" d="M77.7 86.53c1.45 0 2.92.01 4.17.01h.05c.85 0 1.57.01 2.07.01 2.37 0 5.46.13 8.39 1.12 3.8 1.29 3.68 3.47 3.65 3.71-.48 5.41-3.29 8.93-8.33 10.47-2.24.68-5.04 1.06-7.89 1.06-4.08 0-7.66-.78-9.84-2.13-3.53-2.2-4.91-6.24-4.7-9.06l.02-.27h-2.41v-1.81h2.89l.07-.14c1.19-2.41 3.91-2.67 5.71-2.84l.19-.02c.85-.08 2.79-.11 5.96-.11m2.12 15.87c2.82 0 5.57-.36 7.74-1.03 4.9-1.5 7.51-4.78 7.98-10.06.02-.2.1-2.01-3.31-3.17-2.86-.97-5.9-1.1-8.23-1.1-.5 0-1.22 0-2.07-.01h-.15c-1.17-.01-2.6-.01-4.03-.01-3.19 0-5.14.04-5.96.12l-.19.02c-1.96.18-4.64.44-5.55 3.14-1 2.97.44 7.73 4.19 10.06 2.09 1.3 5.58 2.04 9.58 2.04M77.7 86.28c-2.53 0-4.97.02-5.98.12l-.19.02c-1.89.18-4.66.44-5.91 2.98h-2.98v2.31h2.39c-.23 3.15 1.4 7.16 4.82 9.29 2.41 1.5 6.19 2.17 9.97 2.17 2.85 0 5.71-.38 7.96-1.07 5.15-1.57 8.01-5.17 8.51-10.68.03-.27.17-2.62-3.82-3.97-2.97-1.02-6.09-1.15-8.47-1.15-.5 0-1.22 0-2.07-.01-1.26-.01-2.76-.01-4.23-.01zm2.12 15.87c-3.6 0-7.21-.62-9.45-2.01-3.65-2.27-5.06-6.88-4.09-9.77.86-2.55 3.34-2.78 5.34-2.97l.19-.02c.97-.09 3.44-.12 5.94-.12 1.48 0 2.98.01 4.17.01.85 0 1.58.01 2.08.01 2.31 0 5.32.12 8.15 1.08 3.27 1.11 3.16 2.81 3.15 2.91v.02c-.46 5.15-3.01 8.36-7.8 9.82-2.15.68-4.91 1.04-7.68 1.04z" fill="#070201" stroke-width="none" opacity="1"></path><path id="SvgjsPath9682" d="M120.18 103.04c-2.86 0-5.68-.38-7.93-1.06-5.1-1.56-7.93-5.11-8.42-10.58-.03-.26-.17-2.52 3.73-3.84 2.95-1 6.06-1.13 8.43-1.13.5 0 1.22 0 2.07-.01 1.3-.01 2.78-.02 4.23-.02 3.17 0 5.12.04 5.97.12l.18.02c1.83.17 4.59.43 5.81 2.91l.04.07h2.93v2.06h-2.39l.01.13c.21 2.86-1.19 6.96-4.76 9.18-2.19 1.36-5.8 2.15-9.9 2.15zm2.07-15.89c-1.42 0-2.86.01-4.03.01 0 0-1.73.01-2.22.01-2.32 0-5.35.12-8.19 1.09-3.32 1.13-3.25 2.85-3.23 3.04.47 5.23 3.05 8.47 7.89 9.95 2.12.65 4.93 1.02 7.7 1.02 3.98 0 7.44-.74 9.51-2.02 3.7-2.3 5.13-6.98 4.14-9.91-.88-2.62-3.41-2.86-5.45-3.05l-.19-.02c-.8-.08-2.75-.12-5.93-.12z" fill="#26120b" stroke-width="none" opacity="1"></path><path id="SvgjsPath9683" d="M122.3 86.28v.25c3.17 0 5.11.04 5.96.12l.19.02c1.8.17 4.52.43 5.71 2.84l.07.14h2.89v1.81h-2.41l.02.27c.21 2.83-1.17 6.87-4.7 9.06-2.18 1.35-5.76 2.13-9.84 2.13-2.85 0-5.65-.38-7.89-1.06-5.04-1.54-7.85-5.06-8.33-10.47-.03-.24-.16-2.42 3.65-3.71 2.93-.99 6.02-1.12 8.39-1.12.5 0 1.22 0 2.07-.01h.06c1.25-.01 2.72-.01 4.17-.01v-.26m-2.13 16.12c4 0 7.49-.74 9.58-2.04 3.75-2.33 5.2-7.08 4.19-10.06-.91-2.7-3.59-2.95-5.55-3.14l-.19-.02c-.82-.08-2.77-.12-5.96-.12-1.42 0-2.86.01-4.03.01h-.15c-.85 0-1.58.01-2.07.01-2.33 0-5.37.12-8.23 1.1-3.41 1.16-3.33 2.97-3.31 3.19.47 5.26 3.08 8.54 7.98 10.04 2.17.67 4.91 1.03 7.74 1.03m2.12-16.12c-1.47 0-2.97.01-4.23.02-.85 0-1.57.01-2.07.01-2.39 0-5.51.13-8.47 1.14-3.99 1.35-3.85 3.71-3.82 3.97.49 5.52 3.36 9.11 8.51 10.68 2.26.69 5.11 1.07 7.96 1.07 3.78 0 7.56-.67 9.97-2.17 3.42-2.13 5.05-6.14 4.82-9.29h2.39V89.4h-2.98c-1.25-2.53-4.02-2.8-5.91-2.98l-.19-.02c-1.01-.1-3.45-.12-5.98-.12zm-2.12 15.87c-2.77 0-5.53-.36-7.67-1.01-4.79-1.46-7.34-4.68-7.8-9.82v-.02c-.01-.1-.13-1.8 3.15-2.91 2.83-.96 5.84-1.08 8.15-1.08.5 0 1.22 0 2.08-.01 1.19-.01 2.69-.01 4.17-.01 2.5 0 4.96.02 5.94.12l.19.02c2 .19 4.48.42 5.34 2.97.97 2.88-.44 7.5-4.09 9.77-2.25 1.37-5.86 1.98-9.46 1.98z" fill="#070201" stroke-width="none" opacity="1"></path></g></g></g></g></g><rect id="svga-credit-rect" width="200" height="15" x="0" y="185" fill="#ecf0f1" opacity="0.5" style="display: none;"></rect><text id="svga-credit-text" font-family="Avenir Next, Roboto, Helvetica, Arial, sans-serif" font-size="10px" text-anchor="start" font-weight="400" size="10px" anchor="start" weight="400" fill="#333333" x="32.79639434814453" y="182.60824728012085" style="display: none;"><tspan id="SvgjsTspan4806" dy="13" x="32.79639434814453">Created on AvatarMaker.com</tspan></text></g><defs id="SvgjsDefs4753"><linearGradient id="SvgjsLinearGradient9420" x1="80.8481" y1="82.7246" x2="80.8481" y2="107.5423" gradientUnits="userSpaceOnUse" class="svga-on-canvas-glasses-gradient-single-0-null"><stop id="SvgjsStop9421" stop-opacity="1" stop-color="#3d2d1c" offset="0.0208" ></stop><stop id="SvgjsStop9422" stop-opacity="0.6291" stop-color="#402e1c" offset="0.3825" ></stop><stop id="SvgjsStop9423" stop-opacity="0.3897" stop-color="#48321d" offset="0.6159" ></stop><stop id="SvgjsStop9424" stop-opacity="0.1881" stop-color="#57381f" offset="0.8124" ></stop><stop id="SvgjsStop9425" stop-opacity="7.593334e-03" stop-color="#6c4221" offset="0.9884" ></stop><stop id="SvgjsStop9426" stop-opacity="0" stop-color="#6d4221" offset="0.9958" ></stop></linearGradient><linearGradient id="SvgjsLinearGradient9428" x1="-18.8571" y1="82.7246" x2="-18.8571" y2="107.5423" gradientTransform="matrix(-1 0 0 1 100.2947 0)" gradientUnits="userSpaceOnUse" class="svga-on-canvas-glasses-gradient-single-1-null"><stop id="SvgjsStop9429" stop-opacity="1" stop-color="#3d2d1c" offset="0.0208" ></stop><stop id="SvgjsStop9430" stop-opacity="0.6291" stop-color="#402e1c" offset="0.3825" ></stop><stop id="SvgjsStop9431" stop-opacity="0.3897" stop-color="#48321d" offset="0.6159" ></stop><stop id="SvgjsStop9432" stop-opacity="0.1881" stop-color="#57381f" offset="0.8124" ></stop><stop id="SvgjsStop9433" stop-opacity="7.593334e-03" stop-color="#6c4221" offset="0.9884" ></stop><stop id="SvgjsStop9434" stop-opacity="0" stop-color="#6d4221" offset="0.9958" ></stop></linearGradient><linearGradient id="SvgjsLinearGradient9508" x1="81.2337" y1="115.9179" x2="81.2337" y2="93.5216" gradientTransform="matrix(1 0 0 -1 0 202)" gradientUnits="userSpaceOnUse" class="svga-on-canvas-glasses-gradient-single-0-null"><stop id="SvgjsStop9509" stop-opacity="1" stop-color="#3d2d1c" offset="0.0208" ></stop><stop id="SvgjsStop9510" stop-opacity="0.6291" stop-color="#402e1c" offset="0.3825" ></stop><stop id="SvgjsStop9511" stop-opacity="0.3897" stop-color="#48321d" offset="0.6159" ></stop><stop id="SvgjsStop9512" stop-opacity="0.1881" stop-color="#57381f" offset="0.8124" ></stop><stop id="SvgjsStop9513" stop-opacity="7.593334e-03" stop-color="#6c4221" offset="0.9884" ></stop><stop id="SvgjsStop9514" stop-opacity="0" stop-color="#6d4221" offset="0.9958" ></stop></linearGradient><linearGradient id="SvgjsLinearGradient9516" x1="-1736.7662" y1="115.9179" x2="-1736.7662" y2="93.5216" gradientTransform="matrix(-1 0 0 -1 -1618 202)" gradientUnits="userSpaceOnUse" class="svga-on-canvas-glasses-gradient-single-1-null"><stop id="SvgjsStop9517" stop-opacity="1" stop-color="#3d2d1c" offset="0.0208" ></stop><stop id="SvgjsStop9518" stop-opacity="0.6291" stop-color="#402e1c" offset="0.3825" ></stop><stop id="SvgjsStop9519" stop-opacity="0.3897" stop-color="#48321d" offset="0.6159" ></stop><stop id="SvgjsStop9520" stop-opacity="0.1881" stop-color="#57381f" offset="0.8124" ></stop><stop id="SvgjsStop9521" stop-opacity="7.593334e-03" stop-color="#6c4221" offset="0.9884" ></stop><stop id="SvgjsStop9522" stop-opacity="0" stop-color="#6d4221" offset="0.9958" ></stop></linearGradient><linearGradient id="SvgjsLinearGradient9596" x1="80.26" y1="80.14" x2="80.26" y2="110.06" gradientUnits="userSpaceOnUse" class="svga-on-canvas-glasses-gradient-single-0-null"><stop id="SvgjsStop9597" stop-opacity="1" stop-color="#211810" offset="0" ></stop><stop id="SvgjsStop9598" stop-opacity="0.5248" stop-color="#231910" offset="0.4752" ></stop><stop id="SvgjsStop9599" stop-opacity="0.3536" stop-color="#2a1d12" offset="0.6464" ></stop><stop id="SvgjsStop9600" stop-opacity="0.2315" stop-color="#352315" offset="0.7685" ></stop><stop id="SvgjsStop9601" stop-opacity="0.1329" stop-color="#462d18" offset="0.8671" ></stop><stop id="SvgjsStop9602" stop-opacity="4.940000e-02" stop-color="#5c391d" offset="0.9506" ></stop><stop id="SvgjsStop9603" stop-opacity="0" stop-color="#6d4221" offset="1" ></stop></linearGradient><linearGradient id="SvgjsLinearGradient9605" x1="119.74" y1="80.14" x2="119.74" y2="110.06" gradientUnits="userSpaceOnUse" class="svga-on-canvas-glasses-gradient-single-1-null"><stop id="SvgjsStop9606" stop-opacity="1" stop-color="#211810" offset="0" ></stop><stop id="SvgjsStop9607" stop-opacity="0.5248" stop-color="#231910" offset="0.4752" ></stop><stop id="SvgjsStop9608" stop-opacity="0.3536" stop-color="#2a1d12" offset="0.6464" ></stop><stop id="SvgjsStop9609" stop-opacity="0.2315" stop-color="#352315" offset="0.7685" ></stop><stop id="SvgjsStop9610" stop-opacity="0.1329" stop-color="#462d18" offset="0.8671" ></stop><stop id="SvgjsStop9611" stop-opacity="4.940000e-02" stop-color="#5c391d" offset="0.9506" ></stop><stop id="SvgjsStop9612" stop-opacity="0" stop-color="#6d4221" offset="1" ></stop></linearGradient></defs></svg>